<?xml version="1.0" encoding="utf-8"?>
<!-- Generator: Adobe Illustrator 19.2.1, SVG Export Plug-In . SVG Version: 6.00 Build 0)  -->
<svg version="1.1" id="layer" xmlns="http://www.w3.org/2000/svg" xmlns:xlink="http://www.w3.org/1999/xlink" x="0px" y="0px"
	 viewBox="0 0 652 652" style="enable-background:new 0 0 652 652;" xml:space="preserve">
<style type="text/css">
	.st0{fill-rule:evenodd;clip-rule:evenodd;fill:#005B76;}
	.st1{fill-rule:evenodd;clip-rule:evenodd;fill:#F99D28;}
	.st2{fill-rule:evenodd;clip-rule:evenodd;fill:#AF2A30;}
	.st3{fill-rule:evenodd;clip-rule:evenodd;fill:#FFFFFF;}
</style>
<polygon class="st0" points="130.5,380.4 150.8,380.4 166.6,321.2 146.4,321.2 "/>
<polygon class="st0" points="234.5,380.4 254.7,380.4 270.6,321.2 250.4,321.2 "/>
<polygon class="st0" points="338.5,380.4 358.7,380.4 374.6,321.2 354.4,321.2 "/>
<g>
	<path class="st0" d="M215.7,341.5h20.3c2.7-13.3-5.9-20.2-25.8-20.2c-23,0-38.6,11.2-43.8,30.8c-4.7,17.7,4.6,28.5,26.3,28.5
		c21.8,0,34.8-6.8,40.3-22h-20.3c-2.8,6.7-8.2,10.2-15.3,10.2c-9.8,0-13.6-6.2-10.6-17.5c3.1-11.7,10.5-18.2,20.4-18.2
		C213.2,333.1,216.1,335.9,215.7,341.5"/>
	<path class="st0" d="M319.7,341.5h20.3c2.7-13.3-5.9-20.2-25.8-20.2c-23,0-38.6,11.2-43.8,30.8c-4.7,17.7,4.6,28.5,26.3,28.5
		c21.8,0,34.8-6.8,40.3-22h-20.3c-2.8,6.7-8.2,10.2-15.3,10.2c-9.8,0-13.6-6.2-10.6-17.5c3.1-11.7,10.5-18.2,20.4-18.2
		C317.2,333.1,320.1,335.9,319.7,341.5"/>
	<path class="st1" d="M52.3,288.3c27.1-26.9,59.9-33.8,73-15.5c13.1,18.4,1.6,55.3-25.5,82.1c-27.1,26.9-59.9,33.8-73,15.5
		C13.8,352.1,25.2,315.2,52.3,288.3"/>
	<path class="st2" d="M70.3,274c-2.9,2.2-6,4.8-9,7.7c-23.8,23.4-33.6,55.6-21.9,71.7c12.1,16.1,41.3,10.2,65.4-13.5
		c13-12.6,21.8-27.4,25.4-41.1c1.1-10.1-0.4-19-4.9-25.8C114.9,258.7,92.6,259.8,70.3,274"/>
	<path class="st3" d="M83.7,368.3c-12.7,9.5-25.8,14.3-38.6,12.3c5.4,0.3,9.7-5.7,13.3-13.7c3.6-8.2,5.8-15.8,7.5-22.9
		c2.5-11.3,2.7-19.3,1.4-21c-2.2-2.9-7.1-2.1-12.7,1.1c-2.7,1.5-6.2,0.5-2-4.6c4.3-5.1,21.1-17.5,27.2-19.4c6.7-1.9,14.3,0.7,11.7,8
		C89.7,313.3,66.3,374.7,83.7,368.3 M102.8,273.2c3.2,3.2,1.2,10.1-4.1,15.5c-5.4,5.4-12.5,7.3-15.6,4.2c-3.3-3.1-1.3-10.1,4.1-15.6
		C92.7,271.8,99.8,270.1,102.8,273.2"/>
	<path class="st0" d="M405,371.1l4.6-17.3h13.3c10.2,0,14.7,1.8,12.9,8.8c-1.7,6.4-6.7,8.5-15.9,8.5H405 M415.9,330.4h12.6
		c9.5,0,13.8,1.1,12.3,7.1c-1.6,5.9-6.7,7.4-16.5,7.4H412L415.9,330.4z M389.7,380.5h30.4c8.6,0,15.1-0.7,21.2-4.9
		c4.1-2.8,7.2-7.1,8.4-11.8c2.2-8.1-1.5-13.6-10.8-14.9c8.8-1.6,14.3-6.2,16.1-13.2c1.5-5.4,0.3-9.3-3.6-11.9
		c-3.2-2.1-8.5-2.5-15.6-2.5h-30.2L389.7,380.5z"/>
	<path class="st0" d="M487.9,361.5l-0.2,0.7c-2,7.7-8.2,12.3-15.8,12.3c-5.5,0-7.8-2.1-6.8-6.1c1.5-5.4,6.2-6.9,15-6.9H487.9
		 M483.1,380.5h12.2c0.3-2.8,1-5.8,1.9-9.2l4.4-16.5c2.9-10.9-2.5-16.5-16.2-16.5c-13.2,0-21.9,4.6-24.5,12.3h11.7
		c1.5-3.9,4.9-5.7,10.5-5.7c6.3,0,8.5,2.8,6.9,8.8l-0.2,0.7h-6.4c-18.1,0-27.9,3.3-30.7,13.7c-2.2,8.1,2.9,13.3,13.7,13.3
		c7,0,13.1-2.3,18-6.7L483.1,380.5z"/>
	<path class="st0" d="M505.8,380.5h12.3l5.7-21.1c2.1-7.7,9.1-13,16.4-13c7.2,0,9.7,4.2,7.4,12.6l-5.8,21.6h12l6.8-25.3
		c2.9-10.7-2.6-16.9-14.5-16.9c-7.7,0-14,2.6-19.3,8.2l1.5-7.3h-12.1c-1.2,6.5-2.1,10.5-2.5,12.1L505.8,380.5"/>
	<polygon class="st0" points="564.6,380.5 576.5,380.5 582.5,358.2 598.6,380.5 615,380.5 596.8,356.9 621.4,339.2 606,339.2 
		583.1,355.9 592.4,321.3 580.5,321.3 	"/>
</g>
</svg>
